<svg xmlns="http://www.w3.org/2000/svg" viewBox="0 0 640 640" role="img" aria-label="炸弹地鼠">
  <defs>
    <linearGradient id="fur" x1="0" y1="120" x2="0" y2="420" gradientUnits="userSpaceOnUse">
      <stop offset="0%" stop-color="#ffb3a3"/>
      <stop offset="100%" stop-color="#ff806c"/>
    </linearGradient>
    <linearGradient id="belly" x1="0" y1="160" x2="0" y2="380" gradientUnits="userSpaceOnUse">
      <stop offset="0%" stop-color="#ffe6df"/>
      <stop offset="100%" stop-color="#ffc6b9"/>
    </linearGradient>
  </defs>

  <ellipse cx="320" cy="512" rx="126" ry="22" fill="#000" opacity="0.16"/>

  <ellipse cx="218" cy="170" rx="44" ry="58" fill="#ff9683" transform="rotate(-18 218 170)"/>
  <ellipse cx="422" cy="170" rx="44" ry="58" fill="#ff9683" transform="rotate(18 422 170)"/>
  <ellipse cx="218" cy="170" rx="24" ry="32" fill="#ffe3dc" transform="rotate(-18 218 170)"/>
  <ellipse cx="422" cy="170" rx="24" ry="32" fill="#ffe3dc" transform="rotate(18 422 170)"/>

  <path d="M184 214c0-66 49-112 136-112s136 46 136 112v72c0 43-20 79-54 100-18 11-39 17-62 17s-44-6-62-17c-34-21-54-57-54-100v-72z" fill="url(#fur)" stroke="#9d2f25" stroke-width="10" stroke-linejoin="round"/>
  <path d="M216 272c0-40 34-72 104-72s104 32 104 72c0 55-32 96-104 96s-104-41-104-96z" fill="url(#belly)" opacity="0.98"/>

  <circle cx="276" cy="226" r="14" fill="#111"/>
  <circle cx="364" cy="226" r="14" fill="#111"/>
  <circle cx="270" cy="220" r="4" fill="#fff"/>
  <circle cx="358" cy="220" r="4" fill="#fff"/>
  <ellipse cx="320" cy="256" rx="14" ry="11" fill="#7a2b20"/>
  <path d="M320 267c0 0 13 8 22 19" fill="none" stroke="#7a2b20" stroke-width="6" stroke-linecap="round"/>
  <path d="M320 267c0 0-13 8-22 19" fill="none" stroke="#7a2b20" stroke-width="6" stroke-linecap="round"/>

  <ellipse cx="252" cy="356" rx="32" ry="26" fill="#ff9f92" transform="rotate(18 252 356)"/>
  <ellipse cx="388" cy="356" rx="32" ry="26" fill="#ff9f92" transform="rotate(-18 388 356)"/>
  <ellipse cx="252" cy="356" rx="18" ry="12" fill="#ffe3dc" transform="rotate(18 252 356)"/>
  <ellipse cx="388" cy="356" rx="18" ry="12" fill="#ffe3dc" transform="rotate(-18 388 356)"/>

  <path d="M232 412c18 26 45 40 88 40s70-14 88-40" fill="none" stroke="#9d2f25" stroke-width="10" stroke-linecap="round"/>
  <ellipse cx="266" cy="436" rx="36" ry="30" fill="#ff866f" stroke="#9d2f25" stroke-width="8"/>
  <ellipse cx="374" cy="436" rx="36" ry="30" fill="#ff866f" stroke="#9d2f25" stroke-width="8"/>
  <ellipse cx="266" cy="441" rx="16" ry="12" fill="#ffe3dc"/>
  <ellipse cx="374" cy="441" rx="16" ry="12" fill="#ffe3dc"/>

  <circle cx="474" cy="154" r="62" fill="#111" stroke="#4a4a4a" stroke-width="8"/>
  <circle cx="488" cy="138" r="10" fill="#fff" opacity="0.9"/>
  <path d="M498 103c16-22 32-30 57-34" fill="none" stroke="#111" stroke-width="12" stroke-linecap="round"/>
  <path d="M556 69l18-20" stroke="#f9cf4a" stroke-width="10" stroke-linecap="round"/>
  <path d="M565 92l28 1" stroke="#f9cf4a" stroke-width="10" stroke-linecap="round"/>
  <path d="M553 116l21 16" stroke="#f9cf4a" stroke-width="10" stroke-linecap="round"/>

  <path d="M126 308c40-48 88-76 138-84" fill="none" stroke="#ffd0c8" stroke-width="10" stroke-linecap="round" opacity="0.85"/>
  <path d="M514 308c-40-48-88-76-138-84" fill="none" stroke="#ffd0c8" stroke-width="10" stroke-linecap="round" opacity="0.85"/>
</svg>