<svg xmlns="http://www.w3.org/2000/svg" viewBox="0 0 640 640" role="img" aria-label="冰冻地鼠">
  <defs>
    <linearGradient id="fur" x1="0" y1="120" x2="0" y2="420" gradientUnits="userSpaceOnUse">
      <stop offset="0%" stop-color="#a6eeff"/>
      <stop offset="100%" stop-color="#52bdeb"/>
    </linearGradient>
    <linearGradient id="belly" x1="0" y1="160" x2="0" y2="380" gradientUnits="userSpaceOnUse">
      <stop offset="0%" stop-color="#effcff"/>
      <stop offset="100%" stop-color="#c8f4ff"/>
    </linearGradient>
  </defs>

  <ellipse cx="320" cy="512" rx="126" ry="22" fill="#000" opacity="0.16"/>

  <ellipse cx="218" cy="170" rx="44" ry="58" fill="#8edff4" transform="rotate(-18 218 170)"/>
  <ellipse cx="422" cy="170" rx="44" ry="58" fill="#8edff4" transform="rotate(18 422 170)"/>
  <ellipse cx="218" cy="170" rx="24" ry="32" fill="#eafcff" transform="rotate(-18 218 170)"/>
  <ellipse cx="422" cy="170" rx="24" ry="32" fill="#eafcff" transform="rotate(18 422 170)"/>

  <path d="M184 214c0-66 49-112 136-112s136 46 136 112v72c0 43-20 79-54 100-18 11-39 17-62 17s-44-6-62-17c-34-21-54-57-54-100v-72z" fill="url(#fur)" stroke="#126c93" stroke-width="10" stroke-linejoin="round"/>
  <path d="M216 272c0-40 34-72 104-72s104 32 104 72c0 55-32 96-104 96s-104-41-104-96z" fill="url(#belly)" opacity="0.98"/>

  <circle cx="276" cy="226" r="14" fill="#111"/>
  <circle cx="364" cy="226" r="14" fill="#111"/>
  <circle cx="270" cy="220" r="4" fill="#fff"/>
  <circle cx="358" cy="220" r="4" fill="#fff"/>
  <ellipse cx="320" cy="256" rx="14" ry="11" fill="#2a6680"/>
  <path d="M320 267c0 0 13 8 22 19" fill="none" stroke="#2a6680" stroke-width="6" stroke-linecap="round"/>
  <path d="M320 267c0 0-13 8-22 19" fill="none" stroke="#2a6680" stroke-width="6" stroke-linecap="round"/>

  <ellipse cx="252" cy="356" rx="32" ry="26" fill="#8fdcf2" transform="rotate(18 252 356)"/>
  <ellipse cx="388" cy="356" rx="32" ry="26" fill="#8fdcf2" transform="rotate(-18 388 356)"/>
  <ellipse cx="252" cy="356" rx="18" ry="12" fill="#ecfbff" transform="rotate(18 252 356)"/>
  <ellipse cx="388" cy="356" rx="18" ry="12" fill="#ecfbff" transform="rotate(-18 388 356)"/>

  <path d="M232 412c18 26 45 40 88 40s70-14 88-40" fill="none" stroke="#126c93" stroke-width="10" stroke-linecap="round"/>
  <ellipse cx="266" cy="436" rx="36" ry="30" fill="#79d6f4" stroke="#126c93" stroke-width="8"/>
  <ellipse cx="374" cy="436" rx="36" ry="30" fill="#79d6f4" stroke="#126c93" stroke-width="8"/>
  <ellipse cx="266" cy="441" rx="16" ry="12" fill="#ecfbff"/>
  <ellipse cx="374" cy="441" rx="16" ry="12" fill="#ecfbff"/>

  <path d="M132 310c40-48 88-76 138-84" fill="none" stroke="#bdf0ff" stroke-width="10" stroke-linecap="round" opacity="0.9"/>
  <path d="M508 310c-40-48-88-76-138-84" fill="none" stroke="#bdf0ff" stroke-width="10" stroke-linecap="round" opacity="0.9"/>
  <path d="M144 344c38-34 78-54 120-60" fill="none" stroke="#ffffff" stroke-width="7" stroke-linecap="round" opacity="0.8"/>
  <path d="M496 344c-38-34-78-54-120-60" fill="none" stroke="#ffffff" stroke-width="7" stroke-linecap="round" opacity="0.8"/>

  <circle cx="126" cy="236" r="10" fill="#fff" opacity="0.95"/>
  <circle cx="514" cy="232" r="8" fill="#fff" opacity="0.95"/>
  <circle cx="516" cy="294" r="12" fill="#fff" opacity="0.95"/>
</svg>