<svg xmlns="http://www.w3.org/2000/svg" viewBox="0 0 640 640" role="img" aria-label="普通地鼠">
  <defs>
    <linearGradient id="fur" x1="0" y1="120" x2="0" y2="420" gradientUnits="userSpaceOnUse">
      <stop offset="0%" stop-color="#f8cf95"/>
      <stop offset="100%" stop-color="#d99d5d"/>
    </linearGradient>
    <linearGradient id="belly" x1="0" y1="160" x2="0" y2="380" gradientUnits="userSpaceOnUse">
      <stop offset="0%" stop-color="#fff0d8"/>
      <stop offset="100%" stop-color="#f8d2a7"/>
    </linearGradient>
  </defs>

  <ellipse cx="320" cy="512" rx="126" ry="22" fill="#000" opacity="0.16"/>

  <ellipse cx="218" cy="170" rx="44" ry="58" fill="#e4a664" transform="rotate(-18 218 170)"/>
  <ellipse cx="422" cy="170" rx="44" ry="58" fill="#e4a664" transform="rotate(18 422 170)"/>
  <ellipse cx="218" cy="170" rx="24" ry="32" fill="#f7cad2" transform="rotate(-18 218 170)"/>
  <ellipse cx="422" cy="170" rx="24" ry="32" fill="#f7cad2" transform="rotate(18 422 170)"/>

  <path d="M184 214c0-66 49-112 136-112s136 46 136 112v72c0 43-20 79-54 100-18 11-39 17-62 17s-44-6-62-17c-34-21-54-57-54-100v-72z" fill="url(#fur)" stroke="#5b3419" stroke-width="10" stroke-linejoin="round"/>
  <path d="M216 272c0-40 34-72 104-72s104 32 104 72c0 55-32 96-104 96s-104-41-104-96z" fill="url(#belly)" opacity="0.98"/>

  <circle cx="276" cy="226" r="14" fill="#111"/>
  <circle cx="364" cy="226" r="14" fill="#111"/>
  <circle cx="270" cy="220" r="4" fill="#fff"/>
  <circle cx="358" cy="220" r="4" fill="#fff"/>
  <ellipse cx="320" cy="256" rx="14" ry="11" fill="#7a3d22"/>
  <path d="M320 267c0 0 13 8 22 19" fill="none" stroke="#7a3d22" stroke-width="6" stroke-linecap="round"/>
  <path d="M320 267c0 0-13 8-22 19" fill="none" stroke="#7a3d22" stroke-width="6" stroke-linecap="round"/>

  <ellipse cx="252" cy="356" rx="32" ry="26" fill="#e1a35f" transform="rotate(18 252 356)"/>
  <ellipse cx="388" cy="356" rx="32" ry="26" fill="#e1a35f" transform="rotate(-18 388 356)"/>
  <ellipse cx="252" cy="356" rx="18" ry="12" fill="#f7cad2" transform="rotate(18 252 356)"/>
  <ellipse cx="388" cy="356" rx="18" ry="12" fill="#f7cad2" transform="rotate(-18 388 356)"/>

  <path d="M232 412c18 26 45 40 88 40s70-14 88-40" fill="none" stroke="#5b3419" stroke-width="10" stroke-linecap="round"/>
  <ellipse cx="266" cy="436" rx="36" ry="30" fill="#d79b5a" stroke="#5b3419" stroke-width="8"/>
  <ellipse cx="374" cy="436" rx="36" ry="30" fill="#d79b5a" stroke="#5b3419" stroke-width="8"/>
  <ellipse cx="266" cy="441" rx="16" ry="12" fill="#f4d1a2"/>
  <ellipse cx="374" cy="441" rx="16" ry="12" fill="#f4d1a2"/>

  <path d="M252 160c-26 12-44 36-46 66" fill="none" stroke="#cc8a4a" stroke-width="8" stroke-linecap="round" opacity="0.7"/>
  <path d="M388 160c26 12 44 36 46 66" fill="none" stroke="#cc8a4a" stroke-width="8" stroke-linecap="round" opacity="0.7"/>
</svg>