<svg xmlns="http://www.w3.org/2000/svg" viewBox="0 0 256 256" role="img" aria-label="小狗">
  <defs>
    <style>
      .outline{stroke:#4b2f1e;stroke-width:7;stroke-linecap:round;stroke-linejoin:round}
      .eye{fill:#4b2f1e}
      .shine{fill:#fff}
      .blush{fill:#ffb8c8}
    </style>
  </defs>
  <ellipse cx="128" cy="214" rx="56" ry="14" fill="#000" opacity=".12"/>
  <ellipse cx="78" cy="70" rx="26" ry="40" fill="#c98f5c" class="outline"/>
  <ellipse cx="178" cy="70" rx="26" ry="40" fill="#c98f5c" class="outline"/>
  <circle cx="128" cy="128" r="82" fill="#f7d4ab" class="outline"/>
  <path d="M128 56c-34 0-58 22-58 52 0 26 20 48 58 48s58-22 58-48c0-30-24-52-58-52z" fill="#d99d6b" opacity=".92"/>
  <circle cx="100" cy="120" r="10" class="eye"/>
  <circle cx="156" cy="120" r="10" class="eye"/>
  <circle cx="96" cy="116" r="3" class="shine"/>
  <circle cx="152" cy="116" r="3" class="shine"/>
  <ellipse cx="128" cy="150" rx="15" ry="12" fill="#6c442d"/>
  <path d="M128 161c0 0 12 6 20 18" fill="none" class="outline"/>
  <path d="M128 161c0 0-12 6-20 18" fill="none" class="outline"/>
  <ellipse cx="84" cy="156" rx="14" ry="10" class="blush"/>
  <ellipse cx="172" cy="156" rx="14" ry="10" class="blush"/>
  <path d="M86 184c18 16 34 22 42 22s24-6 42-22" fill="none" class="outline"/>
</svg>