<svg xmlns="http://www.w3.org/2000/svg" viewBox="0 0 256 256" role="img" aria-label="青蛙">
  <defs>
    <style>
      .outline{stroke:#2a7a3f;stroke-width:7;stroke-linecap:round;stroke-linejoin:round}
      .eye{fill:#2a7a3f}
      .shine{fill:#fff}
      .blush{fill:#ffb8c8}
    </style>
  </defs>
  <ellipse cx="128" cy="214" rx="56" ry="14" fill="#000" opacity=".12"/>
  <circle cx="86" cy="78" r="24" fill="#70dd6a" class="outline"/>
  <circle cx="170" cy="78" r="24" fill="#70dd6a" class="outline"/>
  <circle cx="128" cy="132" r="82" fill="#7ce86f" class="outline"/>
  <circle cx="100" cy="116" r="13" fill="#fff" class="outline"/>
  <circle cx="156" cy="116" r="13" fill="#fff" class="outline"/>
  <circle cx="100" cy="118" r="5" class="eye"/>
  <circle cx="156" cy="118" r="5" class="eye"/>
  <circle cx="96" cy="114" r="2.5" class="shine"/>
  <circle cx="152" cy="114" r="2.5" class="shine"/>
  <ellipse cx="128" cy="150" rx="16" ry="12" fill="#2f9a47"/>
  <path d="M108 164c8 10 20 15 20 15s12-5 20-15" fill="none" class="outline"/>
  <ellipse cx="84" cy="156" rx="14" ry="10" class="blush"/>
  <ellipse cx="172" cy="156" rx="14" ry="10" class="blush"/>
  <path d="M86 184c20 10 36 14 42 14s22-4 42-14" fill="none" class="outline"/>
</svg>