<svg xmlns="http://www.w3.org/2000/svg" viewBox="0 0 256 256" role="img" aria-label="熊猫">
  <defs>
    <style>
      .outline{stroke:#1f1b1a;stroke-width:7;stroke-linecap:round;stroke-linejoin:round}
      .eye{fill:#1f1b1a}
      .shine{fill:#fff}
      .blush{fill:#ffb8c8}
    </style>
  </defs>
  <ellipse cx="128" cy="214" rx="56" ry="14" fill="#000" opacity=".12"/>
  <circle cx="78" cy="66" r="28" fill="#1f1b1a" class="outline"/>
  <circle cx="178" cy="66" r="28" fill="#1f1b1a" class="outline"/>
  <circle cx="128" cy="126" r="82" fill="#fff" class="outline"/>
  <circle cx="100" cy="118" r="26" fill="#1f1b1a"/>
  <circle cx="156" cy="118" r="26" fill="#1f1b1a"/>
  <circle cx="94" cy="112" r="6" class="shine"/>
  <circle cx="150" cy="112" r="6" class="shine"/>
  <ellipse cx="128" cy="146" rx="16" ry="13" fill="#1f1b1a"/>
  <path d="M128 159c0 0 12 10 20 22" fill="none" class="outline"/>
  <path d="M128 159c0 0-12 10-20 22" fill="none" class="outline"/>
  <ellipse cx="84" cy="154" rx="14" ry="10" class="blush"/>
  <ellipse cx="172" cy="154" rx="14" ry="10" class="blush"/>
  <path d="M88 188c18 10 36 14 40 14s22-4 40-14" fill="none" class="outline"/>
</svg>